<svg xmlns="http://www.w3.org/2000/svg" viewBox="0 0 586.82 499.79"><defs><style>.cls-1{fill:#f4f4fd;}.cls-2{fill:#d0d0f8;}.cls-3{fill:#e5e5fb;}.cls-4{fill:#6300fa;}.cls-5{fill:#4e00c5;}.cls-6{fill:#b8b8f6;}.cls-7{fill:#a10aff;}.cls-8{fill:#e2b779;}.cls-9{fill:#c077ff;}.cls-10{fill:#6a17ff;}.cls-11{fill:#f1f1f1;}.cls-12{fill:#d89bff;}.cls-13{fill:#c50071;}.cls-14{fill:#ff6ec1;}.cls-15{fill:#ec0087;}.cls-16{fill:#ff9cd5;}.cls-17{fill:#c24502;}.cls-18{fill:#fd8444;}.cls-19{fill:#ba4202;}.cls-20{fill:#feae83;}.cls-21{fill:#f05503;}</style></defs><title>Asset 4</title><g id="Layer_2" data-name="Layer 2"><g id="Layer_1-2" data-name="Layer 1"><path class="cls-1" d="M342.85,494.69c10.69,6.17,26.89,6.84,36.15,1.5L580.57,379.81c9.26-5.35,8.09-14.7-2.6-20.87L244,166.1c-10.69-6.17-26.89-6.84-36.15-1.5L6.25,281c-9.26,5.34-8.1,14.7,2.6,20.87l334,192.84Z"/><path class="cls-2" d="M586.82,356.73c0,3.41-2,6.66-6.25,9.09L379,482.19c-9.26,5.35-25.45,4.68-36.14-1.49L8.85,287.86C3,284.49,0,280.18,0,276.1H0V245.86l45.74-26.4v24.73l162.08-93.58c9.26-5.34,25.46-4.67,36.15,1.5l322.51,186.2,20.34-11.74v30.16Z"/><path class="cls-3" d="M342.85,450.51c10.69,6.17,26.89,6.85,36.15,1.5L580.57,335.64c9.26-5.35,8.09-14.7-2.6-20.88L244,121.93c-10.69-6.18-26.89-6.85-36.15-1.5L6.25,236.8c-9.26,5.35-8.1,14.7,2.6,20.87Z"/><path class="cls-4" d="M330.33,419.55l194.06-112L231.91,138.64,37.85,250.69,330.33,419.55Z"/><path class="cls-5" d="M355.09,396.3,470,330,210.53,180.17,95.63,246.5Z"/><path class="cls-6" d="M355.09,454.86v30.19a38.6,38.6,0,0,1-12.24-4.35L8.85,287.86C3,284.5,0,280.19,0,276.1V245.89c0,4.1,3,8.41,8.85,11.79l334,192.83a38.35,38.35,0,0,0,12.24,4.35Z"/><path class="cls-6" d="M460.08,382.42c-6.43,3.71-16.86,3.71-23.28,0s-6.42-9.73,0-13.44,16.85-3.71,23.28,0S466.5,378.71,460.08,382.42Z"/><path class="cls-7" d="M213.1,2.78V176.09L101.9,240.28l0-173.28Z"/><path class="cls-8" d="M107.79,82.38l-26.22-15h0l-3.4-2Z"/><path class="cls-9" d="M130.24,86.7l0,173.26L94.08,239.12,94,66Z"/><path class="cls-10" d="M244.27,20.85v173.3L130.21,260l0-173.29Z"/><path class="cls-11" d="M227.82,26.5,206.37,14,106,72l21.71,12.39L227.82,26.5Z"/><path class="cls-12" d="M213.1,2.78,208.29,0,94,66l5.06,2.7Z"/><path class="cls-12" d="M244.27,20.85,239,17.8,128.81,81.4l5.52,3L244.27,20.85Z"/><path class="cls-12" d="M135.57,83.59,99.63,62.77,94.06,66l36.2,20.74Z"/><path class="cls-7" d="M257.36,28.3V201.6L146.15,265.8l0-173.29Z"/><path class="cls-8" d="M152.05,107.9l-26.22-15h0l-3.4-2Z"/><path class="cls-9" d="M174.49,112.22l0,173.26-36.18-20.84-.06-173.16Z"/><path class="cls-10" d="M288.53,46.36v173.3L174.47,285.51l0-173.29Z"/><path class="cls-11" d="M272.07,52,250.62,39.54l-100.4,58,21.71,12.4Z"/><path class="cls-12" d="M257.36,28.3l-4.81-2.79-114.27,66,5.06,2.7Z"/><path class="cls-12" d="M288.53,46.36l-5.27-3-110.2,63.61,5.52,3L288.53,46.36Z"/><path class="cls-12" d="M179.83,109.1l-36-20.82-5.57,3.22,36.2,20.73,5.32-3.13Z"/><path class="cls-13" d="M303.61,55v173.3l-111.2,64.2,0-173.29Z"/><path class="cls-14" d="M220.75,138.89l0,173.26L184.6,291.31l-.06-173.16Z"/><path class="cls-15" d="M334.79,73V246.33L220.72,312.17l0-173.29Z"/><path class="cls-11" d="M318.33,78.68,296.88,66.2l-100.4,58,21.7,12.4Z"/><path class="cls-16" d="M303.61,55l-4.81-2.78-114.26,66,5.06,2.7Z"/><path class="cls-16" d="M334.78,73l-5.26-3-110.2,63.61,5.52,3L334.78,73Z"/><path class="cls-16" d="M226.09,135.77l-36-20.82-5.57,3.22,36.2,20.73,5.32-3.13Z"/><path class="cls-13" d="M347.11,80.15v173.3l-111.2,64.2,0-173.29Z"/><path class="cls-8" d="M241.79,159.75l-26.21-15h0l-3.4-2Z"/><path class="cls-14" d="M264.24,164.08l0,173.25L228.09,316.5,228,143.34Z"/><path class="cls-15" d="M378.28,98.21V271.52L264.22,337.36l0-173.29Z"/><path class="cls-11" d="M361.82,103.87,340.37,91.39l-100.4,58,21.7,12.4,100.15-57.87Z"/><path class="cls-16" d="M347.11,80.15l-4.81-2.79L228,143.32l5.06,2.7,114-65.87Z"/><path class="cls-16" d="M378.28,98.21l-5.27-3-110.2,63.61,5.52,3L378.27,98.21Z"/><path class="cls-16" d="M269.58,161l-35.95-20.82-5.57,3.22,36.2,20.73Z"/><path class="cls-17" d="M391.36,105.67V279l-111.2,64.19,0-173.29Z"/><path class="cls-8" d="M286.05,185.26l-26.22-15h0l-3.4-2Z"/><path class="cls-18" d="M308.5,189.59l0,173.26L272.34,342l0-173.16,36.21,20.74Z"/><path class="cls-19" d="M422.53,123.73V297L308.47,362.87l0-173.28,114-65.86Z"/><path class="cls-11" d="M406.08,129.38,384.63,116.9l-100.41,58,21.71,12.39Z"/><path class="cls-20" d="M391.36,105.67l-4.81-2.79-114.26,66,5.06,2.7Z"/><path class="cls-20" d="M422.53,123.73l-5.27-3.06-110.2,63.61,5.53,3Z"/><path class="cls-20" d="M313.83,186.47l-35.94-20.81-5.57,3.21,36.2,20.73Z"/><path class="cls-17" d="M437.62,132.34v173.3l-111.21,64.2,0-173.29Z"/><path class="cls-18" d="M354.75,216.25l0,173.26L318.6,368.67l-.06-173.15Z"/><path class="cls-21" d="M468.79,150.39v173.3L354.73,389.54l0-173.29,114-65.86Z"/><path class="cls-11" d="M452.34,156.05l-21.46-12.48-100.4,58,21.7,12.4,100.16-57.87Z"/><path class="cls-20" d="M437.62,132.34l-4.81-2.79-114.27,66,5.07,2.7,114-65.87Z"/><path class="cls-20" d="M468.79,150.39l-5.27-3L353.32,211l5.52,3,110-63.52Z"/><path class="cls-20" d="M360.09,213.14l-35.95-20.82-5.56,3.21,36.19,20.74Z"/></g></g></svg>